<?xml version="1.0" standalone="no"?>
<!DOCTYPE svg PUBLIC "-//W3C//DTD SVG 20010904//EN"
 "http://www.w3.org/TR/2001/REC-SVG-20010904/DTD/svg10.dtd">
<svg version="1.0" xmlns="http://www.w3.org/2000/svg"
 width="111.000000pt" height="180.000000pt" viewBox="0 0 111.000000 180.000000"
 preserveAspectRatio="xMidYMid meet">

<g transform="translate(0.000000,180.000000) scale(0.100000,-0.100000)"
fill="#000000" stroke="none">
<path d="M481 1336 c-222 -222 -408 -411 -413 -420 -5 -9 -5 -23 1 -33 5 -10
192 -200 414 -422 359 -357 407 -402 428 -396 32 9 139 118 139 141 0 10 -147
165 -340 358 l-340 341 340 340 c187 188 340 347 340 354 0 22 -121 141 -144
141 -14 0 -151 -130 -425 -404z"/>
</g>
</svg>
