<?xml version="1.0" standalone="no"?>
<!DOCTYPE svg PUBLIC "-//W3C//DTD SVG 20010904//EN"
 "http://www.w3.org/TR/2001/REC-SVG-20010904/DTD/svg10.dtd">
<svg version="1.0" xmlns="http://www.w3.org/2000/svg"
 width="111.000000pt" height="180.000000pt" viewBox="0 0 111.000000 180.000000"
 preserveAspectRatio="xMidYMid meet">

<g transform="translate(0.000000,180.000000) scale(0.100000,-0.100000)"
fill="#000000" stroke="none">
<path d="M122 1676 c-34 -35 -62 -70 -62 -77 0 -7 153 -166 340 -354 l340
-340 -340 -341 c-193 -193 -340 -348 -340 -358 0 -23 107 -132 139 -141 21 -6
69 39 428 396 222 222 409 412 414 422 6 10 6 24 1 33 -5 9 -191 198 -413 420
-274 274 -411 404 -425 404 -13 0 -45 -25 -82 -64z"/>
</g>
</svg>
